
<svg viewBox="0 0 1100 520" width="100%" role="img" aria-label="Current account balance, 1980-2031">
  <rect x="0" y="0" width="1100" height="520" fill="white" rx="10" />
  <text x="90" y="24" font-size="22" font-weight="700" fill="#111827">Current account balance, 1980-2031</text>
  <text x="90" y="43" font-size="13" fill="#6b7280">IMF DataMapper. Negative numbers are deficits.</text>
  <line x1="90" y1="440.00" x2="1070" y2="440.00" stroke="#e5e7eb" stroke-width="1" /><text x="78" y="444.00" text-anchor="end" font-size="13" fill="#6b7280">-7.8</text><line x1="90" y1="363.00" x2="1070" y2="363.00" stroke="#e5e7eb" stroke-width="1" /><text x="78" y="367.00" text-anchor="end" font-size="13" fill="#6b7280">-5.5</text><line x1="90" y1="286.00" x2="1070" y2="286.00" stroke="#e5e7eb" stroke-width="1" /><text x="78" y="290.00" text-anchor="end" font-size="13" fill="#6b7280">-3.2</text><line x1="90" y1="209.00" x2="1070" y2="209.00" stroke="#e5e7eb" stroke-width="1" /><text x="78" y="213.00" text-anchor="end" font-size="13" fill="#6b7280">-0.9</text><line x1="90" y1="132.00" x2="1070" y2="132.00" stroke="#e5e7eb" stroke-width="1" /><text x="78" y="136.00" text-anchor="end" font-size="13" fill="#6b7280">1.4</text><line x1="90" y1="55.00" x2="1070" y2="55.00" stroke="#e5e7eb" stroke-width="1" /><text x="78" y="59.00" text-anchor="end" font-size="13" fill="#6b7280">3.7</text>
  <line x1="90.00" y1="55" x2="90.00" y2="440" stroke="#eef2f7" stroke-width="1" /><text x="90.00" y="464" text-anchor="middle" font-size="13" fill="#6b7280">1980</text><line x1="186.08" y1="55" x2="186.08" y2="440" stroke="#eef2f7" stroke-width="1" /><text x="186.08" y="464" text-anchor="middle" font-size="13" fill="#6b7280">1985</text><line x1="282.16" y1="55" x2="282.16" y2="440" stroke="#eef2f7" stroke-width="1" /><text x="282.16" y="464" text-anchor="middle" font-size="13" fill="#6b7280">1990</text><line x1="378.24" y1="55" x2="378.24" y2="440" stroke="#eef2f7" stroke-width="1" /><text x="378.24" y="464" text-anchor="middle" font-size="13" fill="#6b7280">1995</text><line x1="474.31" y1="55" x2="474.31" y2="440" stroke="#eef2f7" stroke-width="1" /><text x="474.31" y="464" text-anchor="middle" font-size="13" fill="#6b7280">2000</text><line x1="570.39" y1="55" x2="570.39" y2="440" stroke="#eef2f7" stroke-width="1" /><text x="570.39" y="464" text-anchor="middle" font-size="13" fill="#6b7280">2005</text><line x1="666.47" y1="55" x2="666.47" y2="440" stroke="#eef2f7" stroke-width="1" /><text x="666.47" y="464" text-anchor="middle" font-size="13" fill="#6b7280">2010</text><line x1="762.55" y1="55" x2="762.55" y2="440" stroke="#eef2f7" stroke-width="1" /><text x="762.55" y="464" text-anchor="middle" font-size="13" fill="#6b7280">2015</text><line x1="858.63" y1="55" x2="858.63" y2="440" stroke="#eef2f7" stroke-width="1" /><text x="858.63" y="464" text-anchor="middle" font-size="13" fill="#6b7280">2020</text><line x1="954.71" y1="55" x2="954.71" y2="440" stroke="#eef2f7" stroke-width="1" /><text x="954.71" y="464" text-anchor="middle" font-size="13" fill="#6b7280">2025</text><line x1="1050.78" y1="55" x2="1050.78" y2="440" stroke="#eef2f7" stroke-width="1" /><text x="1050.78" y="464" text-anchor="middle" font-size="13" fill="#6b7280">2030</text>
  <line x1="90" y1="55" x2="90" y2="440" stroke="#9ca3af" stroke-width="1.2" />
  <line x1="90" y1="440" x2="1070" y2="440" stroke="#9ca3af" stroke-width="1.2" />
  <path d="M 90.00 252.51 L 109.22 319.28 L 128.43 162.37 L 147.65 205.77 L 166.86 195.75 L 186.08 235.82 L 205.29 282.55 L 224.51 285.89 L 243.73 282.55 L 262.94 312.60 L 282.16 292.57 L 301.37 302.59 L 320.59 299.25 L 339.80 305.92 L 359.02 259.18 L 378.24 205.77 L 397.45 165.71 L 416.67 222.46 L 435.88 222.46 L 455.10 172.38 L 474.31 92.26 L 493.53 105.61 L 512.75 122.30 L 531.96 139.00 L 551.18 102.27 L 570.39 115.63 L 589.61 132.32 L 608.82 152.35 L 628.04 175.72 L 647.25 275.88 L 666.47 299.25 L 685.69 269.20 L 704.90 295.91 L 724.12 282.55 L 743.33 255.85 L 762.55 295.91 L 781.76 282.55 L 800.98 272.54 L 820.20 259.18 L 839.41 245.83 L 858.63 245.83 L 877.84 179.06 L 897.06 195.75 L 916.27 202.43 L 935.49 195.75" fill="none" stroke="#2563eb" stroke-width="3.5" stroke-linejoin="round" stroke-linecap="round" /><path d="M 954.71 209.11 L 973.92 185.74 L 993.14 189.08 L 1012.35 192.41 L 1031.57 189.08 L 1050.78 185.74 L 1070.00 179.06" fill="none" stroke="#2563eb" stroke-width="3.5" stroke-dasharray="8 6" stroke-linejoin="round" stroke-linecap="round" /><circle cx="1070.00" cy="179.06" r="4.5" fill="#2563eb" /><text x="1078.00" y="171.06" font-size="13" fill="#2563eb">0.0</text><path d="M 90.00 259.18 L 109.22 315.94 L 128.43 315.94 L 147.65 282.55 L 166.86 315.94 L 186.08 342.65 L 205.29 345.99 L 224.51 292.57 L 243.73 305.92 L 262.94 379.37 L 282.16 342.65 L 301.37 289.23 L 320.59 289.23 L 339.80 279.22 L 359.02 329.29 L 378.24 345.99 L 397.45 295.91 L 416.67 275.88 L 435.88 342.65 L 455.10 362.68 L 474.31 312.60 L 493.53 255.85 L 512.75 305.92 L 531.96 356.00 L 551.18 389.39 L 570.39 379.37 L 589.61 376.03 L 608.82 402.74 L 628.04 342.65 L 647.25 329.29 L 666.47 302.59 L 685.69 279.22 L 704.90 325.96 L 724.12 292.57 L 743.33 282.55 L 762.55 335.97 L 781.76 295.91 L 800.98 275.88 L 820.20 265.86 L 839.41 182.40 L 858.63 125.64 L 877.84 102.27 L 897.06 169.04 L 916.27 192.41 L 935.49 252.51" fill="none" stroke="#f97316" stroke-width="3.5" stroke-linejoin="round" stroke-linecap="round" /><path d="M 954.71 265.86 L 973.92 255.85 L 993.14 252.51 L 1012.35 255.85 L 1031.57 255.85 L 1050.78 259.18 L 1070.00 259.18" fill="none" stroke="#f97316" stroke-width="3.5" stroke-dasharray="8 6" stroke-linejoin="round" stroke-linecap="round" /><circle cx="1070.00" cy="259.18" r="4.5" fill="#f97316" /><text x="1078.00" y="251.18" font-size="13" fill="#f97316">-2.4</text>
  <g transform="translate(90, 484)"><line x1="0" y1="0" x2="28" y2="0" stroke="#2563eb" stroke-width="4" stroke-dasharray="8 6" /><text x="36" y="4" font-size="13" fill="#111827">Canada</text></g><g transform="translate(255, 484)"><line x1="0" y1="0" x2="28" y2="0" stroke="#f97316" stroke-width="4" stroke-dasharray="8 6" /><text x="36" y="4" font-size="13" fill="#111827">Australia</text></g>
  <g transform="translate(445, 484)"><line x1="0" y1="0" x2="28" y2="0" stroke="#6b7280" stroke-width="3" stroke-dasharray="8 6" /><text x="36" y="4" font-size="13" fill="#111827">IMF projection</text></g>
  <text x="18" y="247.50" transform="rotate(-90 18,247.50)" font-size="13" fill="#6b7280">Current account, % of GDP</text>
  
</svg>
