
<svg viewBox="0 0 1100 520" width="100%" role="img" aria-label="GDP growth, 1975-2024">
  <rect x="0" y="0" width="1100" height="520" fill="white" rx="10" />
  <text x="90" y="24" font-size="22" font-weight="700" fill="#111827">GDP growth, 1975-2024</text>
  <text x="90" y="43" font-size="13" fill="#6b7280">World Bank annual real GDP growth (actual history only).</text>
  <line x1="90" y1="440.00" x2="1070" y2="440.00" stroke="#e5e7eb" stroke-width="1" /><text x="78" y="444.00" text-anchor="end" font-size="13" fill="#6b7280">-6.4</text><line x1="90" y1="363.00" x2="1070" y2="363.00" stroke="#e5e7eb" stroke-width="1" /><text x="78" y="367.00" text-anchor="end" font-size="13" fill="#6b7280">-3.6</text><line x1="90" y1="286.00" x2="1070" y2="286.00" stroke="#e5e7eb" stroke-width="1" /><text x="78" y="290.00" text-anchor="end" font-size="13" fill="#6b7280">-0.9</text><line x1="90" y1="209.00" x2="1070" y2="209.00" stroke="#e5e7eb" stroke-width="1" /><text x="78" y="213.00" text-anchor="end" font-size="13" fill="#6b7280">1.8</text><line x1="90" y1="132.00" x2="1070" y2="132.00" stroke="#e5e7eb" stroke-width="1" /><text x="78" y="136.00" text-anchor="end" font-size="13" fill="#6b7280">4.5</text><line x1="90" y1="55.00" x2="1070" y2="55.00" stroke="#e5e7eb" stroke-width="1" /><text x="78" y="59.00" text-anchor="end" font-size="13" fill="#6b7280">7.3</text>
  <line x1="90.00" y1="55" x2="90.00" y2="440" stroke="#eef2f7" stroke-width="1" /><text x="90.00" y="464" text-anchor="middle" font-size="13" fill="#6b7280">1975</text><line x1="190.00" y1="55" x2="190.00" y2="440" stroke="#eef2f7" stroke-width="1" /><text x="190.00" y="464" text-anchor="middle" font-size="13" fill="#6b7280">1980</text><line x1="290.00" y1="55" x2="290.00" y2="440" stroke="#eef2f7" stroke-width="1" /><text x="290.00" y="464" text-anchor="middle" font-size="13" fill="#6b7280">1985</text><line x1="390.00" y1="55" x2="390.00" y2="440" stroke="#eef2f7" stroke-width="1" /><text x="390.00" y="464" text-anchor="middle" font-size="13" fill="#6b7280">1990</text><line x1="490.00" y1="55" x2="490.00" y2="440" stroke="#eef2f7" stroke-width="1" /><text x="490.00" y="464" text-anchor="middle" font-size="13" fill="#6b7280">1995</text><line x1="590.00" y1="55" x2="590.00" y2="440" stroke="#eef2f7" stroke-width="1" /><text x="590.00" y="464" text-anchor="middle" font-size="13" fill="#6b7280">2000</text><line x1="690.00" y1="55" x2="690.00" y2="440" stroke="#eef2f7" stroke-width="1" /><text x="690.00" y="464" text-anchor="middle" font-size="13" fill="#6b7280">2005</text><line x1="790.00" y1="55" x2="790.00" y2="440" stroke="#eef2f7" stroke-width="1" /><text x="790.00" y="464" text-anchor="middle" font-size="13" fill="#6b7280">2010</text><line x1="890.00" y1="55" x2="890.00" y2="440" stroke="#eef2f7" stroke-width="1" /><text x="890.00" y="464" text-anchor="middle" font-size="13" fill="#6b7280">2015</text><line x1="990.00" y1="55" x2="990.00" y2="440" stroke="#eef2f7" stroke-width="1" /><text x="990.00" y="464" text-anchor="middle" font-size="13" fill="#6b7280">2020</text>
  <line x1="90" y1="55" x2="90" y2="440" stroke="#9ca3af" stroke-width="1.2" />
  <line x1="90" y1="440" x2="1070" y2="440" stroke="#9ca3af" stroke-width="1.2" />
  <path d="M 90.00 216.72 L 110.00 93.99 L 130.00 160.51 L 150.00 154.83 L 170.00 155.13 L 190.00 198.87 L 210.00 163.90 L 230.00 349.85 L 250.00 187.99 L 270.00 93.73 L 290.00 126.53 L 310.00 200.45 L 330.00 145.33 L 350.00 135.76 L 370.00 194.35 L 390.00 254.65 L 410.00 319.47 L 430.00 235.23 L 450.00 185.30 L 470.00 133.41 L 490.00 184.60 L 510.00 212.67 L 530.00 139.45 L 550.00 150.40 L 570.00 115.13 L 590.00 115.20 L 610.00 207.41 L 630.00 175.65 L 650.00 209.35 L 670.00 173.01 L 690.00 169.68 L 710.00 185.85 L 730.00 202.47 L 750.00 232.26 L 770.00 342.75 L 790.00 173.06 L 810.00 171.75 L 830.00 210.78 L 850.00 194.67 L 870.00 179.20 L 890.00 242.02 L 910.00 231.04 L 930.00 174.67 L 950.00 182.89 L 970.00 206.47 L 990.00 402.74 L 1010.00 92.26 L 1030.00 142.03 L 1050.00 217.19 L 1070.00 216.46" fill="none" stroke="#2563eb" stroke-width="3.5" stroke-linejoin="round" stroke-linecap="round" /><circle cx="1070.00" cy="216.46" r="4.5" fill="#2563eb" /><text x="1078.00" y="208.46" font-size="13" fill="#2563eb">1.6</text><path d="M 90.00 222.56 L 110.00 187.27 L 130.00 158.89 L 150.00 235.09 L 170.00 145.91 L 190.00 174.65 L 210.00 165.95 L 230.00 166.34 L 250.00 323.28 L 270.00 131.42 L 290.00 111.16 L 310.00 148.22 L 330.00 188.15 L 350.00 97.60 L 370.00 150.79 L 390.00 159.44 L 410.00 271.26 L 430.00 248.15 L 450.00 146.07 L 470.00 147.97 L 490.00 150.47 L 510.00 151.16 L 530.00 149.69 L 550.00 128.25 L 570.00 118.32 L 590.00 149.74 L 610.00 202.99 L 630.00 148.79 L 650.00 173.05 L 670.00 141.18 L 690.00 171.23 L 710.00 182.10 L 730.00 153.32 L 750.00 157.99 L 770.00 205.15 L 790.00 197.94 L 810.00 192.73 L 830.00 148.71 L 850.00 185.39 L 870.00 186.89 L 890.00 199.24 L 910.00 182.53 L 930.00 195.59 L 950.00 179.18 L 970.00 198.40 L 990.00 264.16 L 1010.00 203.68 L 1030.00 140.22 L 1050.00 159.13 L 1070.00 221.58" fill="none" stroke="#f97316" stroke-width="3.5" stroke-linejoin="round" stroke-linecap="round" /><circle cx="1070.00" cy="221.58" r="4.5" fill="#f97316" /><text x="1078.00" y="213.58" font-size="13" fill="#f97316">1.4</text>
  <g transform="translate(90, 484)"><line x1="0" y1="0" x2="28" y2="0" stroke="#2563eb" stroke-width="4"  /><text x="36" y="4" font-size="13" fill="#111827">Canada</text></g><g transform="translate(255, 484)"><line x1="0" y1="0" x2="28" y2="0" stroke="#f97316" stroke-width="4"  /><text x="36" y="4" font-size="13" fill="#111827">Australia</text></g>
  
  <text x="18" y="247.50" transform="rotate(-90 18,247.50)" font-size="13" fill="#6b7280">Real GDP growth, %</text>
  <text x="90" y="504" font-size="12" fill="#6b7280">World Bank series gives the cleanest 50-year comparison window.</text>
</svg>
