
<svg viewBox="0 0 1100 520" width="100%" role="img" aria-label="General government gross debt, 1980-2031">
  <rect x="0" y="0" width="1100" height="520" fill="white" rx="10" />
  <text x="90" y="24" font-size="22" font-weight="700" fill="#111827">General government gross debt, 1980-2031</text>
  <text x="90" y="43" font-size="13" fill="#6b7280">IMF DataMapper. This is gross debt, not net debt.</text>
  <line x1="90" y1="440.00" x2="1070" y2="440.00" stroke="#e5e7eb" stroke-width="1" /><text x="78" y="444.00" text-anchor="end" font-size="13" fill="#6b7280">-3.4</text><line x1="90" y1="363.00" x2="1070" y2="363.00" stroke="#e5e7eb" stroke-width="1" /><text x="78" y="367.00" text-anchor="end" font-size="13" fill="#6b7280">23</text><line x1="90" y1="286.00" x2="1070" y2="286.00" stroke="#e5e7eb" stroke-width="1" /><text x="78" y="290.00" text-anchor="end" font-size="13" fill="#6b7280">50</text><line x1="90" y1="209.00" x2="1070" y2="209.00" stroke="#e5e7eb" stroke-width="1" /><text x="78" y="213.00" text-anchor="end" font-size="13" fill="#6b7280">77</text><line x1="90" y1="132.00" x2="1070" y2="132.00" stroke="#e5e7eb" stroke-width="1" /><text x="78" y="136.00" text-anchor="end" font-size="13" fill="#6b7280">104</text><line x1="90" y1="55.00" x2="1070" y2="55.00" stroke="#e5e7eb" stroke-width="1" /><text x="78" y="59.00" text-anchor="end" font-size="13" fill="#6b7280">131</text>
  <line x1="90.00" y1="55" x2="90.00" y2="440" stroke="#eef2f7" stroke-width="1" /><text x="90.00" y="464" text-anchor="middle" font-size="13" fill="#6b7280">1980</text><line x1="186.08" y1="55" x2="186.08" y2="440" stroke="#eef2f7" stroke-width="1" /><text x="186.08" y="464" text-anchor="middle" font-size="13" fill="#6b7280">1985</text><line x1="282.16" y1="55" x2="282.16" y2="440" stroke="#eef2f7" stroke-width="1" /><text x="282.16" y="464" text-anchor="middle" font-size="13" fill="#6b7280">1990</text><line x1="378.24" y1="55" x2="378.24" y2="440" stroke="#eef2f7" stroke-width="1" /><text x="378.24" y="464" text-anchor="middle" font-size="13" fill="#6b7280">1995</text><line x1="474.31" y1="55" x2="474.31" y2="440" stroke="#eef2f7" stroke-width="1" /><text x="474.31" y="464" text-anchor="middle" font-size="13" fill="#6b7280">2000</text><line x1="570.39" y1="55" x2="570.39" y2="440" stroke="#eef2f7" stroke-width="1" /><text x="570.39" y="464" text-anchor="middle" font-size="13" fill="#6b7280">2005</text><line x1="666.47" y1="55" x2="666.47" y2="440" stroke="#eef2f7" stroke-width="1" /><text x="666.47" y="464" text-anchor="middle" font-size="13" fill="#6b7280">2010</text><line x1="762.55" y1="55" x2="762.55" y2="440" stroke="#eef2f7" stroke-width="1" /><text x="762.55" y="464" text-anchor="middle" font-size="13" fill="#6b7280">2015</text><line x1="858.63" y1="55" x2="858.63" y2="440" stroke="#eef2f7" stroke-width="1" /><text x="858.63" y="464" text-anchor="middle" font-size="13" fill="#6b7280">2020</text><line x1="954.71" y1="55" x2="954.71" y2="440" stroke="#eef2f7" stroke-width="1" /><text x="954.71" y="464" text-anchor="middle" font-size="13" fill="#6b7280">2025</text><line x1="1050.78" y1="55" x2="1050.78" y2="440" stroke="#eef2f7" stroke-width="1" /><text x="1050.78" y="464" text-anchor="middle" font-size="13" fill="#6b7280">2030</text>
  <line x1="90" y1="55" x2="90" y2="440" stroke="#9ca3af" stroke-width="1.2" />
  <line x1="90" y1="440" x2="1070" y2="440" stroke="#9ca3af" stroke-width="1.2" />
  <path d="M 90.00 302.59 L 109.22 298.29 L 128.43 282.27 L 147.65 266.53 L 166.86 257.94 L 186.08 243.64 L 205.29 231.90 L 224.51 230.47 L 243.73 230.76 L 262.94 227.04 L 282.16 219.31 L 301.37 196.42 L 320.59 177.82 L 339.80 159.22 L 359.02 151.21 L 378.24 143.77 L 397.45 143.48 L 416.67 157.50 L 435.88 163.23 L 455.10 175.53 L 474.31 200.14 L 493.53 196.99 L 512.75 202.43 L 531.96 213.02 L 551.18 224.46 L 570.39 228.18 L 589.61 230.19 L 608.82 237.91 L 628.04 228.76 L 647.25 196.13 L 666.47 189.84 L 685.69 188.98 L 704.90 181.25 L 724.12 179.25 L 743.33 184.69 L 762.55 166.09 L 781.76 165.52 L 800.98 169.81 L 820.20 170.38 L 839.41 172.38 L 858.63 92.26 L 877.84 108.00 L 897.06 134.04 L 916.27 129.46 L 935.49 115.44" fill="none" stroke="#2563eb" stroke-width="3.5" stroke-linejoin="round" stroke-linecap="round" /><path d="M 954.71 105.42 L 973.92 113.43 L 993.14 116.87 L 1012.35 120.87 L 1031.57 124.88 L 1050.78 129.17 L 1070.00 134.04" fill="none" stroke="#2563eb" stroke-width="3.5" stroke-dasharray="8 6" stroke-linejoin="round" stroke-linecap="round" /><circle cx="1070.00" cy="134.04" r="4.5" fill="#2563eb" /><text x="1078.00" y="126.04" font-size="13" fill="#2563eb">104</text><path d="M 262.94 381.57 L 282.16 383.28 L 301.37 368.40 L 320.59 351.23 L 339.80 342.65 L 359.02 339.50 L 378.24 341.22 L 397.45 346.37 L 416.67 356.10 L 435.88 362.39 L 455.10 365.83 L 474.31 374.41 L 493.53 381.28 L 512.75 387.29 L 531.96 392.44 L 551.18 396.16 L 570.39 399.31 L 589.61 401.88 L 608.82 402.74 L 628.04 396.73 L 647.25 382.71 L 666.47 372.12 L 685.69 361.53 L 704.90 351.81 L 724.12 343.51 L 743.33 333.20 L 762.55 322.62 L 781.76 314.32 L 800.98 312.89 L 820.20 311.17 L 839.41 297.15 L 858.63 267.39 L 877.84 271.68 L 897.06 287.13 L 916.27 288.85 L 935.49 285.42" fill="none" stroke="#f97316" stroke-width="3.5" stroke-linejoin="round" stroke-linecap="round" /><path d="M 954.71 284.27 L 973.92 285.42 L 993.14 285.13 L 1012.35 285.70 L 1031.57 286.56 L 1050.78 287.99 L 1070.00 289.71" fill="none" stroke="#f97316" stroke-width="3.5" stroke-dasharray="8 6" stroke-linejoin="round" stroke-linecap="round" /><circle cx="1070.00" cy="289.71" r="4.5" fill="#f97316" /><text x="1078.00" y="281.71" font-size="13" fill="#f97316">49</text>
  <g transform="translate(90, 484)"><line x1="0" y1="0" x2="28" y2="0" stroke="#2563eb" stroke-width="4" stroke-dasharray="8 6" /><text x="36" y="4" font-size="13" fill="#111827">Canada</text></g><g transform="translate(255, 484)"><line x1="0" y1="0" x2="28" y2="0" stroke="#f97316" stroke-width="4" stroke-dasharray="8 6" /><text x="36" y="4" font-size="13" fill="#111827">Australia</text></g>
  <g transform="translate(445, 484)"><line x1="0" y1="0" x2="28" y2="0" stroke="#6b7280" stroke-width="3" stroke-dasharray="8 6" /><text x="36" y="4" font-size="13" fill="#111827">IMF projection</text></g>
  <text x="18" y="247.50" transform="rotate(-90 18,247.50)" font-size="13" fill="#6b7280">Gross debt, % of GDP</text>
  
</svg>
