
<svg viewBox="0 0 1100 520" width="100%" role="img" aria-label="Unemployment rate, 1980-2031">
  <rect x="0" y="0" width="1100" height="520" fill="white" rx="10" />
  <text x="90" y="24" font-size="22" font-weight="700" fill="#111827">Unemployment rate, 1980-2031</text>
  <text x="90" y="43" font-size="13" fill="#6b7280">IMF DataMapper. Solid line is actual data through 2024; dashed segment is IMF projection.</text>
  <line x1="90" y1="440.00" x2="1070" y2="440.00" stroke="#e5e7eb" stroke-width="1" /><text x="78" y="444.00" text-anchor="end" font-size="13" fill="#6b7280">2.7</text><line x1="90" y1="363.00" x2="1070" y2="363.00" stroke="#e5e7eb" stroke-width="1" /><text x="78" y="367.00" text-anchor="end" font-size="13" fill="#6b7280">4.8</text><line x1="90" y1="286.00" x2="1070" y2="286.00" stroke="#e5e7eb" stroke-width="1" /><text x="78" y="290.00" text-anchor="end" font-size="13" fill="#6b7280">6.8</text><line x1="90" y1="209.00" x2="1070" y2="209.00" stroke="#e5e7eb" stroke-width="1" /><text x="78" y="213.00" text-anchor="end" font-size="13" fill="#6b7280">8.9</text><line x1="90" y1="132.00" x2="1070" y2="132.00" stroke="#e5e7eb" stroke-width="1" /><text x="78" y="136.00" text-anchor="end" font-size="13" fill="#6b7280">11</text><line x1="90" y1="55.00" x2="1070" y2="55.00" stroke="#e5e7eb" stroke-width="1" /><text x="78" y="59.00" text-anchor="end" font-size="13" fill="#6b7280">13</text>
  <line x1="90.00" y1="55" x2="90.00" y2="440" stroke="#eef2f7" stroke-width="1" /><text x="90.00" y="464" text-anchor="middle" font-size="13" fill="#6b7280">1980</text><line x1="186.08" y1="55" x2="186.08" y2="440" stroke="#eef2f7" stroke-width="1" /><text x="186.08" y="464" text-anchor="middle" font-size="13" fill="#6b7280">1985</text><line x1="282.16" y1="55" x2="282.16" y2="440" stroke="#eef2f7" stroke-width="1" /><text x="282.16" y="464" text-anchor="middle" font-size="13" fill="#6b7280">1990</text><line x1="378.24" y1="55" x2="378.24" y2="440" stroke="#eef2f7" stroke-width="1" /><text x="378.24" y="464" text-anchor="middle" font-size="13" fill="#6b7280">1995</text><line x1="474.31" y1="55" x2="474.31" y2="440" stroke="#eef2f7" stroke-width="1" /><text x="474.31" y="464" text-anchor="middle" font-size="13" fill="#6b7280">2000</text><line x1="570.39" y1="55" x2="570.39" y2="440" stroke="#eef2f7" stroke-width="1" /><text x="570.39" y="464" text-anchor="middle" font-size="13" fill="#6b7280">2005</text><line x1="666.47" y1="55" x2="666.47" y2="440" stroke="#eef2f7" stroke-width="1" /><text x="666.47" y="464" text-anchor="middle" font-size="13" fill="#6b7280">2010</text><line x1="762.55" y1="55" x2="762.55" y2="440" stroke="#eef2f7" stroke-width="1" /><text x="762.55" y="464" text-anchor="middle" font-size="13" fill="#6b7280">2015</text><line x1="858.63" y1="55" x2="858.63" y2="440" stroke="#eef2f7" stroke-width="1" /><text x="858.63" y="464" text-anchor="middle" font-size="13" fill="#6b7280">2020</text><line x1="954.71" y1="55" x2="954.71" y2="440" stroke="#eef2f7" stroke-width="1" /><text x="954.71" y="464" text-anchor="middle" font-size="13" fill="#6b7280">2025</text><line x1="1050.78" y1="55" x2="1050.78" y2="440" stroke="#eef2f7" stroke-width="1" /><text x="1050.78" y="464" text-anchor="middle" font-size="13" fill="#6b7280">2030</text>
  <line x1="90" y1="55" x2="90" y2="440" stroke="#9ca3af" stroke-width="1.2" />
  <line x1="90" y1="440" x2="1070" y2="440" stroke="#9ca3af" stroke-width="1.2" />
  <path d="M 90.00 260.59 L 109.22 256.85 L 128.43 125.92 L 147.65 92.26 L 166.86 114.70 L 186.08 148.37 L 205.29 182.04 L 224.51 211.96 L 243.73 249.37 L 262.94 260.59 L 282.16 234.41 L 301.37 155.85 L 320.59 122.18 L 339.80 114.70 L 359.02 152.11 L 378.24 185.78 L 397.45 182.04 L 416.67 200.74 L 435.88 230.67 L 455.10 256.85 L 474.31 286.78 L 493.53 271.82 L 512.75 253.11 L 531.96 256.85 L 551.18 271.82 L 570.39 286.78 L 589.61 298.00 L 608.82 309.22 L 628.04 305.48 L 647.25 223.18 L 666.47 234.41 L 685.69 256.85 L 704.90 264.33 L 724.12 271.82 L 743.33 275.56 L 762.55 279.30 L 781.76 275.56 L 800.98 301.74 L 820.20 324.19 L 839.41 327.93 L 858.63 178.30 L 877.84 260.59 L 897.06 342.89 L 916.27 339.15 L 935.49 301.74" fill="none" stroke="#2563eb" stroke-width="3.5" stroke-linejoin="round" stroke-linecap="round" /><path d="M 954.71 283.04 L 973.92 298.00 L 993.14 305.48 L 1012.35 309.22 L 1031.57 312.96 L 1050.78 316.70 L 1070.00 316.70" fill="none" stroke="#2563eb" stroke-width="3.5" stroke-dasharray="8 6" stroke-linejoin="round" stroke-linecap="round" /><circle cx="1070.00" cy="316.70" r="4.5" fill="#2563eb" /><text x="1078.00" y="308.70" font-size="13" fill="#2563eb">6.0</text><path d="M 90.00 312.96 L 109.22 324.19 L 128.43 271.82 L 147.65 167.07 L 166.86 204.48 L 186.08 230.67 L 205.29 238.15 L 224.51 238.15 L 243.73 271.82 L 262.94 312.96 L 282.16 283.04 L 301.37 182.04 L 320.59 140.89 L 339.80 133.41 L 359.02 178.30 L 378.24 223.18 L 397.45 223.18 L 416.67 226.93 L 435.88 253.11 L 455.10 283.04 L 474.31 305.48 L 493.53 286.78 L 512.75 301.74 L 531.96 320.45 L 551.18 339.15 L 570.39 354.11 L 589.61 361.59 L 608.82 376.56 L 628.04 380.30 L 647.25 331.67 L 666.47 346.63 L 685.69 350.37 L 704.90 346.63 L 724.12 327.93 L 743.33 312.96 L 762.55 312.96 L 781.76 327.93 L 800.98 331.67 L 820.20 342.89 L 839.41 346.63 L 858.63 298.00 L 877.84 350.37 L 897.06 402.74 L 916.27 402.74 L 935.49 391.52" fill="none" stroke="#f97316" stroke-width="3.5" stroke-linejoin="round" stroke-linecap="round" /><path d="M 954.71 384.04 L 973.92 384.04 L 993.14 380.30 L 1012.35 376.56 L 1031.57 376.56 L 1050.78 372.82 L 1070.00 372.82" fill="none" stroke="#f97316" stroke-width="3.5" stroke-dasharray="8 6" stroke-linejoin="round" stroke-linecap="round" /><circle cx="1070.00" cy="372.82" r="4.5" fill="#f97316" /><text x="1078.00" y="364.82" font-size="13" fill="#f97316">4.5</text>
  <g transform="translate(90, 484)"><line x1="0" y1="0" x2="28" y2="0" stroke="#2563eb" stroke-width="4" stroke-dasharray="8 6" /><text x="36" y="4" font-size="13" fill="#111827">Canada</text></g><g transform="translate(255, 484)"><line x1="0" y1="0" x2="28" y2="0" stroke="#f97316" stroke-width="4" stroke-dasharray="8 6" /><text x="36" y="4" font-size="13" fill="#111827">Australia</text></g>
  <g transform="translate(445, 484)"><line x1="0" y1="0" x2="28" y2="0" stroke="#6b7280" stroke-width="3" stroke-dasharray="8 6" /><text x="36" y="4" font-size="13" fill="#111827">IMF projection</text></g>
  <text x="18" y="247.50" transform="rotate(-90 18,247.50)" font-size="13" fill="#6b7280">Unemployment rate, %</text>
  
</svg>
